<svg width="118" height="118" viewBox="0 0 118 118" fill="none" xmlns="http://www.w3.org/2000/svg">
<path d="M94.0313 20.144C92.5726 20.144 91.1467 20.578 89.9339 21.3912C88.7211 22.2043 87.7758 23.36 87.2176 24.7122C86.6594 26.0644 86.5134 27.5523 86.798 28.9877C87.0825 30.4232 87.7849 31.7417 88.8163 32.7766C89.8478 33.8115 91.1619 34.5163 92.5925 34.8019C94.0231 35.0874 95.5059 34.9408 96.8535 34.3808C98.2011 33.8207 99.353 32.8722 100.163 31.6553C100.974 30.4383 101.406 29.0076 101.406 27.544C101.404 25.582 100.627 23.701 99.244 22.3136C97.8614 20.9263 95.9866 20.146 94.0313 20.144ZM94.0313 31.244C93.3019 31.244 92.589 31.027 91.9826 30.6205C91.3762 30.2139 90.9035 29.6361 90.6244 28.96C90.3453 28.2839 90.2723 27.5399 90.4146 26.8222C90.5569 26.1045 90.9081 25.4452 91.4238 24.9277C91.9395 24.4103 92.5965 24.0579 93.3119 23.9151C94.0272 23.7724 94.7686 23.8456 95.4424 24.1257C96.1162 24.4057 96.6921 24.88 97.0973 25.4884C97.5025 26.0969 97.7188 26.8123 97.7188 27.544C97.7175 28.525 97.3286 29.4653 96.6373 30.1589C95.946 30.8525 95.0088 31.2428 94.0313 31.244Z" fill="#414535"/>
<path d="M109.297 27.4878C108.519 16.2374 102.744 1.85 94.0312 1.85C85.3189 1.85 79.5432 16.2374 78.765 27.4878L72.4662 33.6162C72.289 33.7886 72.1481 33.995 72.0519 34.2231C71.9557 34.4512 71.9062 34.6964 71.9063 34.944V48.1C71.9063 48.4462 72.0032 48.7854 72.1858 49.0791C72.3684 49.3727 72.6295 49.6091 72.9393 49.7614C73.2492 49.9136 73.5953 49.9756 73.9385 49.9403C74.2817 49.9049 74.6082 49.7737 74.8807 49.5615L81.8895 44.1053C82.5279 45.3386 83.2792 46.5095 84.1337 47.6031C84.3061 47.8223 84.5258 47.9994 84.7762 48.1211C85.0266 48.2428 85.3013 48.306 85.5795 48.3059H102.67C102.954 48.3058 103.234 48.24 103.488 48.1137C103.742 47.9874 103.964 47.8041 104.136 47.5778C104.874 46.5892 105.527 45.5395 106.089 44.44L113.236 49.6013C113.511 49.8001 113.836 49.9188 114.174 49.9444C114.512 49.9699 114.851 49.9013 115.153 49.7461C115.455 49.5908 115.709 49.355 115.886 49.0646C116.062 48.7742 116.156 48.4404 116.156 48.1V34.944C116.156 34.6964 116.107 34.4512 116.011 34.2231C115.914 33.995 115.773 33.7886 115.596 33.6162L109.297 27.4878ZM75.5938 44.3242V35.7263L78.7664 32.64C78.9603 35.3491 79.5068 38.0211 80.3919 40.5879L75.5938 44.3242ZM94.0312 5.55C96.3328 5.55 98.6814 7.63893 100.668 10.8903C96.2815 11.7132 91.781 11.7132 87.3945 10.8903C89.3811 7.63893 91.7297 5.55 94.0312 5.55ZM101.727 44.606H86.4995C83.6562 40.2842 82.2089 35.1884 82.3548 30.0119C82.3895 24.6023 83.5068 19.2547 85.6403 14.2866C88.393 14.9177 91.2077 15.236 94.0312 15.2354C96.8548 15.236 99.6695 14.9177 102.422 14.2866C104.556 19.2547 105.673 24.6023 105.708 30.0119C105.831 35.1625 104.447 40.2364 101.727 44.606ZM112.469 44.4885L107.582 40.9604C108.514 38.2739 109.09 35.476 109.295 32.6387L112.469 35.7263V44.4885Z" fill="#414535"/>
<path d="M75.5938 83.25V86.95H79.2812C83.6807 86.9452 87.8986 85.1894 91.0095 82.068C94.1204 78.9466 95.8702 74.7144 95.875 70.3V55.5H92.1875V70.3C92.1834 73.7333 90.8223 77.0247 88.4028 79.4524C85.9833 81.8801 82.7029 83.2458 79.2812 83.25H75.5938Z" fill="#414535"/>
<path d="M37.7321 69.057C36.1769 68.652 34.5764 68.4486 32.9697 68.4518C31.5077 68.4752 30.0543 68.6809 28.643 69.0643C28.2508 69.1694 27.9043 69.4016 27.6571 69.7247C27.41 70.0478 27.2761 70.4437 27.2764 70.851L27.2584 72.6992C26.5345 73.029 25.8389 73.4182 25.1787 73.8627L24.9951 73.8338L23.4016 72.9413C23.0579 72.7494 22.6622 72.6725 22.2719 72.7219C21.8817 72.7713 21.5174 72.9444 21.2319 73.2159C19.0295 75.3103 17.4463 77.9742 16.6568 80.914C16.5506 81.3118 16.5797 81.7337 16.7395 82.113C16.8993 82.4923 17.1807 82.8072 17.5391 83.0079L19.1974 83.9383C19.1614 84.3286 19.1433 84.7158 19.1433 85.1C19.1433 85.4848 19.1613 85.872 19.1974 86.2617L17.5391 87.1921C17.1812 87.3928 16.9002 87.7075 16.7404 88.0863C16.5806 88.4652 16.5512 88.8867 16.6568 89.2842C17.4416 92.226 19.0219 94.8927 21.223 96.9894C21.5085 97.2608 21.8728 97.4338 22.263 97.4832C22.6532 97.5326 23.0489 97.4558 23.3926 97.2641L24.9951 96.3661L25.1787 96.3373C25.8563 96.7829 26.5565 97.1929 27.2764 97.5658V99.3561C27.2764 99.7634 27.4104 100.159 27.6574 100.482C27.9045 100.805 28.251 101.038 28.643 101.143C30.1219 101.543 31.6468 101.747 33.1786 101.75C33.2542 101.75 33.3298 101.748 33.4037 101.748C34.8662 101.725 36.3202 101.519 37.7321 101.136C38.1243 101.031 38.4709 100.798 38.718 100.475C38.9651 100.152 39.099 99.7562 39.0988 99.3489L39.1132 97.5007C39.8384 97.1712 40.5352 96.7821 41.1964 96.3373L41.38 96.3662L42.9735 97.2587C43.3171 97.4511 43.7129 97.5283 44.1033 97.4789C44.4936 97.4294 44.858 97.2561 45.1432 96.9841C47.3456 94.8897 48.9288 92.2257 49.7183 89.286C49.8245 88.8882 49.7954 88.4662 49.6356 88.087C49.4758 87.7077 49.1944 87.3927 48.8361 87.192L47.1778 86.2616C47.2138 85.8714 47.2318 85.4842 47.2318 85.1C47.2318 84.7152 47.2138 84.3279 47.1778 83.9383L48.8361 83.0079C49.1939 82.8071 49.475 82.4925 49.6347 82.1136C49.7945 81.7348 49.8239 81.3133 49.7183 80.9158C48.9326 77.974 47.3517 75.3074 45.1504 73.2105C44.8647 72.9388 44.5 72.7657 44.1095 72.7163C43.7189 72.6669 43.3229 72.7438 42.9789 72.9359L41.3782 73.8338L42.2785 75.4489L41.1964 73.8627C40.5185 73.4175 39.8184 73.0075 39.0988 72.6341V70.8439C39.0987 70.4367 38.9648 70.0408 38.7177 69.7177C38.4706 69.3946 38.1241 69.1624 37.7321 69.057ZM39.1347 76.9304C39.7317 77.3227 40.4248 77.5427 41.138 77.5663C41.8513 77.5899 42.5573 77.4162 43.1787 77.0641L43.5298 76.8671C44.4567 77.9534 45.1951 79.1883 45.714 80.5202L44.2771 81.3259C43.9392 81.5157 43.6692 81.8072 43.5054 82.1592C43.3416 82.5113 43.2922 82.9062 43.3643 83.288C43.6043 84.484 43.6043 85.7161 43.3643 86.9121C43.2922 87.2939 43.3416 87.6887 43.5054 88.0407C43.6692 88.3928 43.9391 88.6843 44.277 88.874L45.7139 89.6798C45.1914 91.0104 44.4508 92.2439 43.5226 93.3292L43.1787 93.1359C42.5582 92.7846 41.8534 92.6109 41.1413 92.6338C40.4291 92.6568 39.7369 92.8754 39.1401 93.266C38.6494 93.5965 38.132 93.8853 37.5934 94.1295C36.9397 94.4322 36.3864 94.917 35.9995 95.5262C35.6126 96.1354 35.4084 96.8434 35.4112 97.5658V97.8602C33.9394 98.1106 32.4363 98.1125 30.9639 97.8657V97.5658C30.9671 96.8433 30.7631 96.1351 30.3761 95.5258C29.9892 94.9165 29.4356 94.4318 28.7816 94.1295C28.2446 93.8871 27.729 93.5994 27.2403 93.2696C26.6435 92.8777 25.9508 92.6579 25.2379 92.6344C24.525 92.6108 23.8194 92.7843 23.1981 93.1359L22.8452 93.3346C21.9187 92.2474 21.1804 91.012 20.6612 89.6798L22.098 88.874C22.436 88.6843 22.706 88.3928 22.8698 88.0407C23.0336 87.6886 23.083 87.2938 23.0109 86.912C22.7708 85.716 22.7708 84.4839 23.0109 83.2878C23.0829 82.9061 23.0335 82.5113 22.8697 82.1592C22.7059 81.8072 22.4359 81.5157 22.098 81.326L20.6612 80.5202C21.1836 79.1897 21.9243 77.9562 22.8524 76.8708L23.1963 77.0641C23.8165 77.4168 24.5214 77.5912 25.2338 77.5683C25.9463 77.5453 26.6386 77.3259 27.2349 76.9341C27.7248 76.6032 28.2416 76.3143 28.7798 76.0705C29.4343 75.7687 29.9883 75.2841 30.3757 74.6747C30.763 74.0654 30.9672 73.3569 30.964 72.6342V72.3397C31.6422 72.2233 32.3285 72.1604 33.0166 72.1518C33.8189 72.1325 34.6211 72.1936 35.4113 72.3343V72.6342C35.4085 73.3566 35.6127 74.0646 35.9996 74.6738C36.3865 75.283 36.9398 75.7678 37.5935 76.0704C38.1302 76.3137 38.6457 76.6013 39.1347 76.9304V76.9304Z" fill="#414535"/>
<path d="M25.8125 85.1C25.8125 86.5636 26.245 87.9943 27.0554 89.2112C27.8658 90.4281 29.0176 91.3766 30.3652 91.9367C31.7128 92.4968 33.1957 92.6433 34.6263 92.3578C36.0569 92.0723 37.371 91.3675 38.4024 90.3326C39.4338 89.2977 40.1362 87.9791 40.4208 86.5437C40.7054 85.1082 40.5593 83.6203 40.0011 82.2681C39.4429 80.916 38.4976 79.7602 37.2848 78.9471C36.072 78.134 34.6461 77.7 33.1875 77.7C31.2321 77.702 29.3574 78.4822 27.9747 79.8696C26.5921 81.2569 25.8145 83.138 25.8125 85.1ZM36.875 85.1C36.875 85.8318 36.6587 86.5471 36.2535 87.1556C35.8484 87.7641 35.2724 88.2383 34.5986 88.5184C33.9248 88.7984 33.1834 88.8717 32.4681 88.7289C31.7528 88.5861 31.0958 88.2337 30.58 87.7163C30.0643 87.1988 29.7131 86.5396 29.5709 85.8218C29.4286 85.1041 29.5016 84.3602 29.7807 83.6841C30.0598 83.008 30.5324 82.4301 31.1388 82.0236C31.7452 81.617 32.4582 81.4 33.1875 81.4C34.1651 81.4013 35.1023 81.7915 35.7936 82.4851C36.4848 83.1787 36.8737 84.1191 36.875 85.1Z" fill="#414535"/>
<path d="M7.37875 95.0293C6.15072 91.8642 5.52411 88.4965 5.53131 85.1C5.53165 80.1779 6.83666 75.3444 9.31253 71.0952C11.7884 66.846 15.3461 63.3339 19.6207 60.9192C23.8953 58.5044 28.733 57.2739 33.6379 57.3537C38.5428 57.4335 43.3382 58.8208 47.5325 61.3734L45.3016 63.1674C45.0344 63.3822 44.8321 63.6675 44.7173 63.9912C44.6025 64.3149 44.5799 64.6642 44.6518 65.0001C44.7238 65.336 44.8876 65.6452 45.1248 65.893C45.362 66.1408 45.6633 66.3174 45.9949 66.403L54.9219 68.7065C55.072 68.7445 55.2262 68.7639 55.381 68.7643C55.6281 68.7642 55.8726 68.7143 56.1 68.6175C56.3275 68.5207 56.5332 68.379 56.705 68.2009C56.8768 68.0228 57.0112 67.8118 57.1002 67.5806C57.1891 67.3493 57.2309 67.1025 57.2229 66.8547L56.9277 57.6101C56.9167 57.2669 56.8107 56.9336 56.6216 56.6474C56.4324 56.3612 56.1676 56.1335 55.8567 55.9899C55.5459 55.8462 55.2013 55.7922 54.8616 55.834C54.5219 55.8758 54.2005 56.0116 53.9334 56.2263L50.5575 58.9409C45.8396 55.78 40.3547 53.9641 34.6885 53.6872C29.0223 53.4103 23.3875 54.6828 18.3858 57.3687C13.3841 60.0546 9.20331 64.0531 6.28986 68.9372C3.37642 73.8214 1.83971 79.4078 1.84381 85.1C1.83605 88.9564 2.54814 92.7801 3.94324 96.3734L7.37875 95.0293ZM53.3608 61.4276L53.4598 64.5078L50.4835 63.7401L53.3608 61.4276Z" fill="#414535"/>
<path d="M61.4163 71.3966L58.0961 73.0082C60.846 78.6997 61.5749 85.1634 60.1619 91.3275C58.7489 97.4917 55.2789 102.986 50.3272 106.901C45.3754 110.815 39.2392 112.913 32.9358 112.849C26.6323 112.784 20.5402 110.56 15.6692 106.545L18.3565 104.384C18.6237 104.169 18.826 103.884 18.9408 103.56C19.0555 103.237 19.0782 102.887 19.0062 102.551C18.9343 102.215 18.7705 101.906 18.5333 101.658C18.2961 101.411 17.9948 101.234 17.6632 101.148L8.73616 98.8432C8.45895 98.7719 8.16901 98.7663 7.88927 98.8268C7.60954 98.8874 7.34769 99.0125 7.12446 99.1921C6.90122 99.3718 6.72272 99.6011 6.60308 99.862C6.48345 100.123 6.42595 100.408 6.43516 100.695L6.73045 109.941C6.74126 110.285 6.84717 110.618 7.03629 110.904C7.22541 111.191 7.49028 111.418 7.80118 111.562C8.11209 111.706 8.45674 111.76 8.79649 111.718C9.13624 111.676 9.45766 111.54 9.7247 111.325L12.7483 108.894C18.2068 113.609 25.1175 116.293 32.3173 116.495C39.5171 116.697 46.5665 114.405 52.2792 110.003C57.9919 105.602 62.0192 99.3603 63.6834 92.3288C65.3475 85.2973 64.5469 77.9053 61.4163 71.3966ZM10.2974 106.124L10.1983 103.042L13.1746 103.81L10.2974 106.124Z" fill="#414535"/>
<path d="M103.25 51.8H99.5625V66.6H103.25V51.8Z" fill="#414535"/>
<path d="M71.9062 83.25H68.2188V86.95H71.9062V83.25Z" fill="#414535"/>
<path d="M88.5 51.8H84.8125V66.6H88.5V51.8Z" fill="#414535"/>
</svg>
