<svg width="110" height="120" viewBox="0 0 110 120" fill="none" xmlns="http://www.w3.org/2000/svg">
<path d="M89.8608 64.272H19.1391C18.7139 64.272 18.3062 64.1034 18.0056 63.8034C17.705 63.5033 17.5361 63.0963 17.5361 62.672V53.264C17.5361 52.8397 17.705 52.4327 18.0056 52.1326C18.3062 51.8326 18.7139 51.664 19.1391 51.664H89.8608C90.286 51.664 90.6937 51.8326 90.9943 52.1326C91.2949 52.4327 91.4638 52.8397 91.4638 53.264V62.672C91.4638 63.0963 91.2949 63.5033 90.9943 63.8034C90.6937 64.1034 90.286 64.272 89.8608 64.272ZM20.742 61.072H88.2579V54.864H20.742V61.072Z" fill="#414535"/>
<path d="M82.5194 107.2H26.4164C25.9913 107.2 25.5836 107.031 25.283 106.731C24.9824 106.431 24.8135 106.024 24.8135 105.6V62.672C24.8135 62.2476 24.9824 61.8407 25.283 61.5406C25.5836 61.2406 25.9913 61.072 26.4164 61.072H82.5194C82.9445 61.072 83.3522 61.2406 83.6528 61.5406C83.9534 61.8407 84.1223 62.2476 84.1223 62.672V105.6C84.1223 106.024 83.9534 106.431 83.6528 106.731C83.3522 107.031 82.9445 107.2 82.5194 107.2ZM28.0194 104H80.9164V64.272H28.0194V104Z" fill="#414535"/>
<path d="M39.6568 54.848C39.5076 54.8645 39.3571 54.8645 39.208 54.848C38.9972 54.7915 38.8002 54.6927 38.6291 54.5575C38.4579 54.4223 38.3163 54.2537 38.2127 54.062C38.1092 53.8702 38.0459 53.6594 38.0269 53.4424C38.0078 53.2254 38.0334 53.0068 38.1019 52.8L41.2116 42.016C41.3308 41.6122 41.6046 41.2716 41.9737 41.068C42.3427 40.8643 42.7773 40.814 43.1833 40.928C43.3868 40.9851 43.577 41.0819 43.7429 41.2127C43.9088 41.3435 44.0471 41.5058 44.1499 41.6902C44.2527 41.8747 44.318 42.0775 44.3419 42.2872C44.3658 42.4969 44.3479 42.7092 44.2893 42.912L41.1956 53.696C41.0985 54.0283 40.896 54.3203 40.6186 54.528C40.3411 54.7357 40.0036 54.848 39.6568 54.848Z" fill="#414535"/>
<path d="M79.7945 54.848C79.4631 54.8467 79.1403 54.7429 78.8705 54.5509C78.6006 54.3589 78.397 54.0882 78.2877 53.776L70.273 30.848C69.6959 29.024 67.4999 27.472 64.0696 26.416C63.8627 26.3591 63.6693 26.2613 63.5009 26.1284C63.3325 25.9954 63.1926 25.8301 63.0895 25.6422C62.9863 25.4543 62.9221 25.2476 62.9005 25.0345C62.8789 24.8213 62.9004 24.6059 62.9637 24.4012C63.0271 24.1965 63.131 24.0066 63.2693 23.8427C63.4076 23.6788 63.5774 23.5443 63.7688 23.4472C63.9601 23.3501 64.1691 23.2923 64.3832 23.2774C64.5973 23.2624 64.8123 23.2905 65.0154 23.36C69.5517 24.752 72.4209 26.992 73.3186 29.76L81.3333 52.64C81.4044 52.8385 81.4355 53.0491 81.4248 53.2596C81.4141 53.4702 81.3618 53.6766 81.2709 53.8669C81.18 54.0572 81.0524 54.2277 80.8953 54.3686C80.7382 54.5095 80.5548 54.6181 80.3555 54.688C80.1799 54.7751 79.9897 54.8294 79.7945 54.848Z" fill="#414535"/>
<path d="M29.2055 54.848C29.026 54.8511 28.8471 54.8241 28.6766 54.768C28.2898 54.6296 27.971 54.3483 27.7861 53.982C27.6011 53.6158 27.5641 53.1927 27.6827 52.8L35.6974 29.872C36.5791 27.072 39.4483 24.832 43.9846 23.472C44.1877 23.4025 44.4027 23.3744 44.6168 23.3894C44.8309 23.4043 45.0399 23.4621 45.2312 23.5592C45.4226 23.6563 45.5924 23.7908 45.7307 23.9547C45.869 24.1186 45.9729 24.3085 46.0363 24.5132C46.0996 24.7179 46.1211 24.9333 46.0995 25.1465C46.0779 25.3596 46.0136 25.5663 45.9105 25.7542C45.8074 25.9421 45.6675 26.1075 45.4991 26.2404C45.3307 26.3733 45.1373 26.4711 44.9304 26.528C41.5001 27.584 39.3041 29.136 38.743 30.912L30.7283 53.888C30.6 54.1819 30.3863 54.4305 30.1148 54.6017C29.8433 54.7728 29.5265 54.8587 29.2055 54.848Z" fill="#414535"/>
<path d="M69.3432 54.848C68.9856 54.8622 68.6334 54.7565 68.3429 54.5477C68.0524 54.3389 67.8403 54.0391 67.7403 53.696L64.6466 42.928C64.5877 42.7263 64.5691 42.515 64.592 42.3061C64.6149 42.0972 64.6788 41.8949 64.78 41.7107C64.8812 41.5264 65.0178 41.3639 65.1819 41.2324C65.3461 41.1008 65.5346 41.0028 65.7366 40.944C65.9387 40.8852 66.1504 40.8666 66.3597 40.8895C66.5689 40.9123 66.7716 40.9761 66.9562 41.0771C67.1408 41.1781 67.3036 41.3144 67.4354 41.4783C67.5672 41.6421 67.6653 41.8303 67.7243 42.032L70.8821 52.8C70.941 53.0017 70.9596 53.213 70.9367 53.4219C70.9138 53.6308 70.8499 53.8331 70.7487 54.0173C70.6475 54.2016 70.5109 54.3641 70.3468 54.4956C70.1826 54.6272 69.9942 54.7252 69.7921 54.784C69.6452 54.8212 69.4947 54.8426 69.3432 54.848Z" fill="#414535"/>
<path d="M54.5 37.36C54.2763 37.3595 54.0552 37.3122 53.8509 37.2213C53.6466 37.1304 53.4636 36.9977 53.3138 36.832L43.2794 25.968C43.0238 25.6515 42.8985 25.2498 42.9289 24.8444C42.9593 24.439 43.1432 24.0604 43.4431 23.7855C43.7431 23.5105 44.1367 23.3598 44.5439 23.364C44.9511 23.3682 45.3415 23.5269 45.6357 23.808L54.4679 33.408L63.3001 23.808C63.4422 23.6494 63.6142 23.5202 63.8063 23.4279C63.9984 23.3356 64.2068 23.282 64.4197 23.2701C64.6325 23.2583 64.8456 23.2883 65.0468 23.3587C65.248 23.429 65.4334 23.5382 65.5923 23.68C65.7512 23.8218 65.8806 23.9935 65.9731 24.1853C66.0655 24.377 66.1193 24.585 66.1312 24.7975C66.1431 25.0099 66.1129 25.2227 66.0425 25.4235C65.972 25.6243 65.8626 25.8094 65.7206 25.968L55.6861 36.8C55.5392 36.9716 55.3575 37.1102 55.1531 37.2067C54.9487 37.3032 54.7261 37.3555 54.5 37.36Z" fill="#414535"/>
<path d="M54.5 24.784C52.2009 24.7872 49.9524 24.1095 48.0392 22.8368C46.126 21.5641 44.634 19.7536 43.7519 17.6342C42.8699 15.5149 42.6374 13.182 43.084 10.9308C43.5306 8.67954 44.6362 6.61112 46.2608 4.98723C47.8854 3.36334 49.9561 2.25696 52.2109 1.80807C54.4656 1.35918 56.8031 1.58796 58.9276 2.46547C61.052 3.34297 62.868 4.82976 64.1457 6.73772C65.4233 8.64568 66.1053 10.889 66.1053 13.184C66.1053 16.2577 64.8831 19.2058 62.7072 21.3808C60.5312 23.5557 57.5794 24.7798 54.5 24.784ZM54.5 4.79999C52.8343 4.79683 51.205 5.28719 49.8186 6.20898C48.4323 7.13077 47.3512 8.4425 46.7122 9.97806C46.0733 11.5136 45.9053 13.2039 46.2295 14.8348C46.5537 16.4657 47.3555 17.964 48.5334 19.1397C49.7113 20.3154 51.2122 21.1157 52.8462 21.4394C54.4801 21.763 56.1735 21.5953 57.7119 20.9575C59.2502 20.3197 60.5644 19.2406 61.4879 17.8568C62.4113 16.473 62.9026 14.8467 62.8994 13.184C62.8952 10.9617 62.0089 8.83167 60.4346 7.26028C58.8604 5.68889 56.7264 4.80422 54.5 4.79999Z" fill="#414535"/>
<path d="M84.4269 54.864C84.0017 54.864 83.594 54.6954 83.2934 54.3954C82.9928 54.0953 82.8239 53.6883 82.8239 53.264V28.544L79.3776 25.6C79.2091 25.4645 79.0698 25.2964 78.9681 25.1057C78.8664 24.9151 78.8045 24.7058 78.786 24.4906C78.7675 24.2754 78.7929 24.0587 78.8606 23.8536C78.9282 23.6484 79.0368 23.4591 79.1797 23.2969C79.3227 23.1348 79.4971 23.0032 79.6923 22.9101C79.8876 22.817 80.0997 22.7644 80.3159 22.7553C80.5321 22.7463 80.7479 22.781 80.9503 22.8574C81.1526 22.9338 81.3374 23.0504 81.4935 23.2L85.4848 26.688C85.6558 26.8379 85.7928 27.0225 85.8868 27.2294C85.9808 27.4363 86.0295 27.6608 86.0298 27.888V53.328C86.0132 53.7412 85.8371 54.1319 85.5382 54.4182C85.2394 54.7046 84.8411 54.8643 84.4269 54.864Z" fill="#414535"/>
<path d="M77.5183 27.2C76.4086 27.2 75.324 26.8716 74.4013 26.2562C73.4787 25.6409 72.7597 24.7663 72.335 23.743C71.9104 22.7198 71.7993 21.5938 72.0158 20.5075C72.2322 19.4212 72.7666 18.4234 73.5512 17.6402C74.3358 16.857 75.3355 16.3237 76.4237 16.1076C77.512 15.8915 78.6401 16.0024 79.6652 16.4263C80.6904 16.8501 81.5666 17.5679 82.1831 18.4888C82.7995 19.4097 83.1286 20.4924 83.1286 21.6C83.1286 23.0852 82.5375 24.5096 81.4853 25.5598C80.4332 26.61 79.0062 27.2 77.5183 27.2ZM77.5183 19.2C77.0427 19.2 76.5778 19.3408 76.1824 19.6045C75.787 19.8682 75.4789 20.243 75.2969 20.6816C75.1149 21.1201 75.0673 21.6027 75.16 22.0682C75.2528 22.5338 75.4818 22.9614 75.8181 23.2971C76.1543 23.6327 76.5828 23.8613 77.0492 23.9539C77.5156 24.0465 77.999 23.999 78.4384 23.8173C78.8777 23.6357 79.2533 23.328 79.5175 22.9334C79.7817 22.5387 79.9227 22.0747 79.9227 21.6C79.9227 20.9635 79.6694 20.353 79.2184 19.9029C78.7675 19.4529 78.1559 19.2 77.5183 19.2Z" fill="#414535"/>
<path d="M33.6618 99.072H26.4806C26.0555 99.072 25.6478 98.9034 25.3472 98.6034C25.0466 98.3033 24.8777 97.8963 24.8777 97.472V73.472C24.8777 73.0476 25.0466 72.6407 25.3472 72.3406C25.6478 72.0406 26.0555 71.872 26.4806 71.872H33.6618C34.0869 71.872 34.4946 72.0406 34.7953 72.3406C35.0959 72.6407 35.2647 73.0476 35.2647 73.472C35.2647 73.8963 35.0959 74.3033 34.7953 74.6034C34.4946 74.9034 34.0869 75.072 33.6618 75.072H28.0836V95.872H33.6618C34.0869 95.872 34.4946 96.0406 34.7953 96.3406C35.0959 96.6407 35.2647 97.0476 35.2647 97.472C35.2647 97.8963 35.0959 98.3033 34.7953 98.6034C34.4946 98.9034 34.0869 99.072 33.6618 99.072Z" fill="#414535"/>
<path d="M82.5195 99.072H75.3383C74.9132 99.072 74.5055 98.9034 74.2048 98.6034C73.9042 98.3033 73.7354 97.8963 73.7354 97.472C73.7354 97.0476 73.9042 96.6407 74.2048 96.3406C74.5055 96.0406 74.9132 95.872 75.3383 95.872H80.9326V75.072H75.3383C74.9132 75.072 74.5055 74.9034 74.2048 74.6034C73.9042 74.3033 73.7354 73.8963 73.7354 73.472C73.7354 73.0476 73.9042 72.6407 74.2048 72.3406C74.5055 72.0406 74.9132 71.872 75.3383 71.872H82.5355C82.9606 71.872 83.3683 72.0406 83.669 72.3406C83.9696 72.6407 84.1385 73.0476 84.1385 73.472V97.472C84.1385 97.6834 84.0965 97.8928 84.0149 98.088C83.9334 98.2832 83.8139 98.4603 83.6633 98.609C83.5128 98.7578 83.3342 98.8754 83.1378 98.9548C82.9415 99.0343 82.7313 99.0741 82.5195 99.072Z" fill="#414535"/>
</svg>
