<svg width="100" height="100" viewBox="0 0 100 100" fill="none" xmlns="http://www.w3.org/2000/svg">
<path d="M41.2901 39.04H44.3001L47.8901 42.84C48.3901 43.34 49.2501 42.98 49.2501 42.28V29.57C49.2501 28.86 48.3901 28.51 47.8901 29.01L44.3401 32.7H41.2901C40.8501 32.7 40.5001 33.06 40.5001 33.49V38.25C40.4901 38.7 40.8501 39.04 41.2901 39.04Z" fill="#414535"/>
<path d="M56.5301 28.63C56.2201 28.32 55.7201 28.32 55.4101 28.63C55.1001 28.94 55.1001 29.44 55.4101 29.75C57.0601 31.4 57.9601 33.59 57.9601 35.92C57.9601 38.25 57.0501 40.45 55.4101 42.09C55.1001 42.4 55.1001 42.9 55.4101 43.21C55.7201 43.52 56.2201 43.52 56.5301 43.21C58.4801 41.27 59.5501 38.68 59.5501 35.92C59.5501 33.17 58.4801 30.58 56.5301 28.63Z" fill="#414535"/>
<path d="M54.2901 30.88C53.9801 30.57 53.4801 30.57 53.1701 30.88C52.8601 31.19 52.8601 31.69 53.1701 32C55.3401 34.17 55.3401 37.69 53.1701 39.86C52.8601 40.17 52.8601 40.67 53.1701 40.98C53.4801 41.29 53.9801 41.29 54.2901 40.98C57.0701 38.19 57.0701 33.66 54.2901 30.88Z" fill="#414535"/>
<path d="M50.9201 38.73C51.2301 39.04 51.7301 39.04 52.0401 38.73C52.7901 37.98 53.2001 36.98 53.2001 35.92C53.2001 34.86 52.7901 33.86 52.0401 33.12C51.7301 32.81 51.2301 32.81 50.9201 33.12C50.6101 33.43 50.6101 33.93 50.9201 34.24C51.3701 34.69 51.6201 35.29 51.6201 35.92C51.6201 36.56 51.3701 37.15 50.9201 37.6C50.6101 37.92 50.6101 38.42 50.9201 38.73Z" fill="#414535"/>
<path d="M88.09 14.62H59.9H55.54H11.91C8.73002 14.63 6.16002 17.2 6.15002 20.38V40.09V44.45V61.22C6.16002 64.4 8.73002 66.97 11.91 66.98H48.6V77.51C39.7 77.74 30.9 79.48 22.58 82.66C21.87 82.99 21.57 83.84 21.9 84.54C22.21 85.21 22.99 85.52 23.68 85.26C23.93 85.15 50.31 74.29 76.35 85.26C76.52 85.34 76.71 85.38 76.9 85.37C77.68 85.37 78.31 84.73 78.31 83.95C78.31 83.38 77.97 82.87 77.45 82.65C69.2 79.23 60.36 77.47 51.43 77.47V66.97H88.08C91.26 66.96 93.83 64.39 93.84 61.21V20.38C93.84 17.2 91.27 14.63 88.09 14.62ZM8.98002 20.38C8.98002 18.76 10.29 17.45 11.91 17.45H55.54H59.9H88.09C89.71 17.45 91.02 18.76 91.02 20.38V52.83H8.98002V44.46V40.1V20.38ZM91.06 61.22C91.06 62.84 89.75 64.15 88.13 64.15C88.12 64.15 88.1 64.15 88.09 64.15H11.91C10.29 64.15 8.98002 62.84 8.98002 61.22V55.66H91.06V61.22Z" fill="#414535"/>
</svg>
