<svg width="24" height="24" viewBox="0 0 24 24" fill="none" xmlns="http://www.w3.org/2000/svg">
<path d="M23.6471 0.352916C23.5352 0.241031 23.4025 0.152276 23.2563 0.0917216C23.1102 0.0311675 22.9535 0 22.7953 0C22.6371 0 22.4805 0.0311675 22.3343 0.0917216C22.1882 0.152276 22.0554 0.241031 21.9436 0.352916L12 10.2968L2.05635 0.352916C1.94449 0.24106 1.8117 0.152331 1.66555 0.0917951C1.51941 0.0312593 1.36277 0.000101075 1.20458 0.000101072C1.04639 0.000101069 0.889754 0.0312593 0.743608 0.0917951C0.597462 0.152331 0.464669 0.241059 0.352813 0.352914C0.240958 0.46477 0.15223 0.597563 0.0916941 0.743709C0.0311582 0.889855 -3.11826e-09 1.04649 0 1.20468C3.11826e-09 1.36287 0.0311582 1.51951 0.0916941 1.66566C0.15223 1.8118 0.240959 1.94459 0.352815 2.05645L10.2967 12.0001L0.352815 21.9437C0.126912 22.1696 1.14616e-06 22.4759 1.14854e-06 22.7954C1.15092e-06 23.1149 0.126912 23.4213 0.352815 23.6472C0.578717 23.8731 0.885106 24 1.20458 24C1.52406 24 1.83044 23.8731 2.05635 23.6472L12 13.7033L21.9436 23.6472C22.1695 23.8731 22.4758 24 22.7953 24C23.1148 24 23.4212 23.8731 23.6471 23.6472C23.873 23.4213 23.9999 23.1149 23.9999 22.7954C23.9999 22.4759 23.873 22.1696 23.6471 21.9437L13.7032 12.0001L23.6471 2.05645C23.759 1.94461 23.8477 1.81182 23.9083 1.66567C23.9688 1.51953 24 1.36288 24 1.20468C24 1.04649 23.9688 0.889838 23.9083 0.74369C23.8477 0.597541 23.759 0.464755 23.6471 0.352916Z" fill="#414535"/>
</svg>
