<svg width="130" height="130" viewBox="0 0 130 130" fill="none" xmlns="http://www.w3.org/2000/svg">
<path d="M37.154 106.824H29.25C28.5656 106.823 27.9061 106.566 27.4009 106.103C26.8958 105.64 26.5816 105.004 26.52 104.32H2.59998V106.615C2.59998 107.348 2.89034 108.051 3.40719 108.57C3.92404 109.088 4.62504 109.38 5.35598 109.38H62.556C63.2869 109.38 63.9879 109.088 64.5048 108.57C65.0216 108.051 65.312 107.348 65.312 106.615V104.32H39.884C39.8223 105.004 39.5081 105.64 39.003 106.103C38.4979 106.566 37.8384 106.823 37.154 106.824Z" fill="#414535"/>
<path d="M124.8 56.7892H116.727V23.798C116.727 22.719 116.3 21.6841 115.539 20.9212C114.778 20.1582 113.747 19.7295 112.671 19.7295H15.6C14.5243 19.7295 13.4926 20.1582 12.732 20.9212C11.9713 21.6841 11.544 22.719 11.544 23.798V56.7892H6.66898C6.13633 56.7875 5.60857 56.891 5.11582 57.0939C4.62307 57.2968 4.17498 57.595 3.79714 57.9716C3.41929 58.3482 3.1191 58.7957 2.91369 59.2887C2.70828 59.7817 2.60168 60.3104 2.59998 60.8446V101.464H65.377V95.5571H80.132C80.8629 95.5571 81.5639 95.2659 82.0808 94.7474C82.5976 94.229 82.888 93.5258 82.888 92.7927V89.8195C82.888 89.0863 82.5976 88.3832 82.0808 87.8647C81.5639 87.3463 80.8629 87.0551 80.132 87.0551H65.377V81.5783H92.066V106.354C92.066 107.392 92.4769 108.387 93.2083 109.12C93.9396 109.854 94.9316 110.266 95.966 110.266H124.8C125.834 110.266 126.826 109.854 127.558 109.12C128.289 108.387 128.7 107.392 128.7 106.354V60.7012C128.7 59.6637 128.289 58.6686 127.558 57.935C126.826 57.2014 125.834 56.7892 124.8 56.7892ZM126.1 60.7012V101.542H94.666V60.7012C94.666 60.3554 94.8029 60.0237 95.0467 59.7791C95.2905 59.5346 95.6212 59.3972 95.966 59.3972H124.8C125.145 59.3972 125.475 59.5346 125.719 59.7791C125.963 60.0237 126.1 60.3554 126.1 60.7012ZM108.16 104.763C108.16 104.384 108.272 104.014 108.482 103.698C108.692 103.383 108.99 103.137 109.34 102.992C109.689 102.847 110.073 102.809 110.444 102.883C110.814 102.957 111.155 103.14 111.422 103.408C111.69 103.676 111.872 104.018 111.945 104.389C112.019 104.761 111.981 105.147 111.837 105.497C111.692 105.847 111.447 106.147 111.133 106.357C110.818 106.568 110.449 106.68 110.071 106.68C109.564 106.68 109.078 106.478 108.72 106.119C108.361 105.759 108.16 105.272 108.16 104.763ZM62.79 98.8562H5.19998V60.8446C5.19998 60.4573 5.35338 60.0858 5.62643 59.8119C5.89948 59.538 6.26982 59.3842 6.65598 59.3842H61.256C61.6421 59.3842 62.0125 59.538 62.2855 59.8119C62.5586 60.0858 62.712 60.4573 62.712 60.8446V98.8562H62.79ZM65.39 78.9702V60.8446C65.39 59.7656 64.9626 58.7308 64.202 57.9678C63.4414 57.2048 62.4097 56.7762 61.334 56.7762H14.105V23.798C14.1066 23.604 14.1468 23.4122 14.2232 23.2339C14.2996 23.0557 14.4106 22.8944 14.5498 22.7597C14.6889 22.6249 14.8535 22.5194 15.0338 22.4491C15.2141 22.3789 15.4066 22.3454 15.6 22.3506H112.671C113.057 22.3506 113.427 22.5044 113.701 22.7783C113.974 23.0522 114.127 23.4237 114.127 23.811V56.7892H95.927C94.8926 56.7892 93.9006 57.2014 93.1693 57.935C92.4379 58.6686 92.027 59.6637 92.027 60.7012V78.9572H65.377L65.39 78.9702Z" fill="#414535"/>
<path d="M22.8151 79.6614L30.7321 83.5473V81.8782L24.9211 79.1789V79.1528L30.7321 76.4274V74.7453L22.8151 78.6312V79.6614Z" fill="#414535"/>
<path d="M31.33 84.2123H32.734L36.6079 72.2546H35.191L31.33 84.2123Z" fill="#414535"/>
<path d="M37.271 76.3883L43.602 79.1267V79.1658L37.271 81.9043V83.5473L45.188 79.87V78.4226L37.271 74.7453V76.3883Z" fill="#414535"/>
<path d="M46.0591 44.1535L58.8381 50.4387V47.7395L49.4651 43.3841V43.3319L58.8381 38.9505V36.2251L46.0591 42.4974V44.1535Z" fill="#414535"/>
<path d="M59.7999 51.495H62.0619L68.3149 32.2218H66.0269L59.7999 51.495Z" fill="#414535"/>
<path d="M69.381 38.8722L79.599 43.3058V43.358L69.381 47.7916V50.4387L82.16 44.5055V42.1583L69.381 36.2251V38.8722Z" fill="#414535"/>
<path d="M108.251 82.6084L104.468 80.848V80.8219L108.251 79.0615V77.9662L103.103 80.4959V81.161L108.251 83.6907V82.6084Z" fill="#414535"/>
<path d="M112.073 76.3492H111.15L108.641 84.121H109.551L112.073 76.3492Z" fill="#414535"/>
<path d="M117.663 80.3525L112.515 77.9662V79.0354L116.636 80.8219V80.835L112.515 82.6214V83.6907L117.663 81.3044V80.3525Z" fill="#414535"/>
</svg>
