<svg width="125" height="127" viewBox="0 0 125 127" fill="none" xmlns="http://www.w3.org/2000/svg">
<path d="M119.679 77.6548C118.092 76.9157 116.328 76.6556 114.598 76.9057C112.869 77.1558 111.247 77.9054 109.928 79.0648C109.71 79.2603 109.375 78.9917 109.375 78.7481V47.8391C109.374 46.6924 108.923 45.5931 108.123 44.7824C107.322 43.9716 106.236 43.5156 105.104 43.5143C104.082 43.5076 103.092 43.8808 102.324 44.5632C101.567 45.2172 100.641 45.6368 99.6561 45.7717C98.6707 45.9067 97.6679 45.7513 96.7674 45.3242C95.8666 44.903 95.1037 44.2293 94.569 43.3828C94.0342 42.5363 93.75 41.5525 93.75 40.5476C93.7499 39.5428 94.034 38.5589 94.5687 37.7124C95.1033 36.8658 95.8661 36.1921 96.767 35.7707C97.6674 35.3435 98.6703 35.1881 99.6556 35.3231C100.641 35.4581 101.567 35.8777 102.323 36.5317C103.092 37.2141 104.082 37.5872 105.104 37.5806C106.236 37.5793 107.322 37.1233 108.123 36.3125C108.923 35.5018 109.374 34.4025 109.375 33.2558V17.8013C109.375 17.2768 109.169 16.7737 108.803 16.4027C108.437 16.0318 107.94 15.8234 107.422 15.8234H92.1617C91.9243 15.8234 91.6541 15.4821 91.8479 15.2632C92.9931 13.9273 93.7336 12.2853 93.9806 10.5339C94.2276 8.78261 93.9708 6.9963 93.2408 5.38907C92.5159 3.78154 91.35 2.41889 89.882 1.46343C88.414 0.507981 86.7058 0 84.9607 0C83.2157 0 81.5074 0.507981 80.0394 1.46343C78.5714 2.41889 77.4055 3.78154 76.6807 5.38907C75.9506 6.99651 75.6938 8.78306 75.941 10.5346C76.1882 12.2861 76.929 13.9282 78.0744 15.2642C78.268 15.4853 78.0008 15.8234 77.7602 15.8234H47.2398C46.1075 15.8247 45.0219 16.2807 44.2212 17.0914C43.4206 17.9022 42.9701 19.0015 42.9687 20.1481C42.9618 21.1836 43.3303 22.1857 44.0044 22.9644C44.6505 23.7298 45.0651 24.6677 45.1985 25.6656C45.3318 26.6635 45.1783 27.6792 44.7564 28.591C44.3403 29.5033 43.675 30.2759 42.8391 30.8175C42.0032 31.359 41.0316 31.6467 40.0393 31.6467C39.047 31.6467 38.0754 31.359 37.2395 30.8175C36.4035 30.2759 35.7382 29.5033 35.3222 28.591C34.9002 27.6792 34.7467 26.6635 34.8801 25.6656C35.0135 24.6677 35.428 23.7298 36.0741 22.9644C36.748 22.1856 37.1163 21.1836 37.1094 20.1481C37.108 19.0015 36.6575 17.9022 35.8568 17.0914C35.0562 16.2807 33.9706 15.8247 32.8383 15.8234H17.5781C17.0601 15.8234 16.5633 16.0318 16.1971 16.4027C15.8308 16.7737 15.625 17.2768 15.625 17.8013V33.2558C15.6249 33.3537 15.5864 33.4476 15.518 33.5167C15.4496 33.5859 15.3569 33.6248 15.2602 33.6247C15.1935 33.6286 15.1273 33.6103 15.0718 33.5726C13.7522 32.4135 12.1307 31.6641 10.4014 31.414C8.67207 31.164 6.90825 31.4238 5.321 32.1625C3.73371 32.8966 2.38825 34.0773 1.44487 35.5639C0.501485 37.0506 -5.04202e-05 38.7805 3.80182e-09 40.5476C5.04278e-05 42.3147 0.501685 44.0446 1.44515 45.5312C2.38862 47.0178 3.73415 48.1984 5.32148 48.9324C6.90843 49.6714 8.67211 49.9316 10.4013 49.6817C12.1305 49.4317 13.7519 48.6824 15.0714 47.5233C15.1267 47.4848 15.1932 47.4662 15.2602 47.4702C15.3569 47.4702 15.4496 47.509 15.518 47.5782C15.5864 47.6473 15.6249 47.7412 15.625 47.8391V78.7481C15.6264 79.8948 16.0768 80.9941 16.8775 81.8048C17.6782 82.6156 18.7637 83.0716 19.896 83.0728C20.9183 83.0796 21.9076 82.7064 22.6765 82.024C23.4324 81.3697 24.3585 80.95 25.3439 80.815C26.3293 80.68 27.3322 80.8356 28.2326 81.263C29.1334 81.6842 29.8963 82.3579 30.431 83.2044C30.9658 84.0509 31.2499 85.0347 31.25 86.0396C31.25 87.0444 30.966 88.0283 30.4313 88.8748C29.8967 89.7214 29.1339 90.3951 28.233 90.8165C27.3327 91.2438 26.3297 91.3993 25.3444 91.2643C24.359 91.1294 23.4329 90.7097 22.6769 90.0555C21.9079 89.3731 20.9185 89 19.896 89.0066C18.7637 89.0079 17.6782 89.4639 16.8775 90.2747C16.0768 91.0854 15.6264 92.1847 15.625 93.3314V108.786C15.625 109.31 15.8308 109.814 16.1971 110.184C16.5633 110.555 17.0601 110.764 17.5781 110.764H32.8383C32.935 110.764 33.0277 110.803 33.0961 110.872C33.1645 110.941 33.203 111.035 33.2031 111.133C33.2067 111.2 33.1886 111.267 33.1516 111.324C32.0064 112.66 31.266 114.302 31.0189 116.053C30.7719 117.805 31.0288 119.591 31.7588 121.198C32.4836 122.806 33.6495 124.168 35.1175 125.124C36.5855 126.079 38.2938 126.587 40.0388 126.587C41.7839 126.587 43.4921 126.079 44.9601 125.124C46.4281 124.168 47.594 122.806 48.3189 121.198C49.0489 119.591 49.3057 117.805 49.0587 116.053C48.8117 114.302 48.0712 112.66 46.926 111.324C46.8891 111.267 46.8712 111.2 46.875 111.133C46.8751 111.035 46.9136 110.941 46.982 110.872C47.0504 110.803 47.1431 110.764 47.2398 110.764H77.7602C78.8925 110.763 79.9781 110.307 80.7787 109.496C81.5794 108.685 82.0299 107.586 82.0313 106.439C82.0382 105.404 81.6697 104.401 80.9956 103.623C80.3495 102.857 79.9349 101.92 79.8015 100.922C79.6682 99.9237 79.8217 98.908 80.2436 97.9962C80.6596 97.0838 81.325 96.3112 82.1609 95.7697C82.9968 95.2282 83.9684 94.9405 84.9607 94.9405C85.953 94.9405 86.9246 95.2282 87.7605 95.7697C88.5965 96.3112 89.2618 97.0838 89.6778 97.9962C90.0998 98.908 90.2533 99.9237 90.1199 100.922C89.9865 101.92 89.572 102.857 88.9259 103.623C88.252 104.402 87.8836 105.404 87.8906 106.439C87.892 107.586 88.3425 108.685 89.1431 109.496C89.9438 110.307 91.0294 110.763 92.1617 110.764H107.422C107.94 110.764 108.437 110.555 108.803 110.184C109.169 109.814 109.375 109.31 109.375 108.786V93.3314C109.375 93.0905 109.712 92.8175 109.928 93.0146C111.248 94.174 112.869 94.9237 114.598 95.1738C116.328 95.4239 118.091 95.1638 119.679 94.4247C121.266 93.6907 122.611 92.51 123.555 91.0235C124.498 89.5369 125 87.807 125 86.0399C125 84.2728 124.499 82.5429 123.555 81.0562C122.612 79.5696 121.266 78.3889 119.679 77.6548L119.679 77.6548ZM64.4531 19.7792H77.7602C78.8925 19.778 79.9781 19.322 80.7787 18.5112C81.5794 17.7005 82.0299 16.6012 82.0313 15.4545C82.0382 14.419 81.6697 13.4169 80.9956 12.6383C80.3495 11.8728 79.9349 10.935 79.8015 9.93708C79.6682 8.93917 79.8217 7.92348 80.2436 7.01163C80.6596 6.0993 81.325 5.3267 82.1609 4.78518C82.9968 4.24367 83.9684 3.9559 84.9607 3.9559C85.953 3.9559 86.9246 4.24367 87.7605 4.78518C88.5965 5.3267 89.2618 6.0993 89.6778 7.01163C90.0998 7.92348 90.2533 8.93917 90.1199 9.93708C89.9865 10.935 89.572 11.8728 88.9259 12.6383C88.252 13.417 87.8836 14.4191 87.8906 15.4545C87.892 16.6012 88.3425 17.7005 89.1431 18.5112C89.9438 19.322 91.0294 19.778 92.1617 19.7792H105.469V33.2558C105.469 33.4937 105.13 33.7646 104.916 33.5726C103.596 32.4136 101.974 31.6642 100.245 31.4141C98.5159 31.164 96.752 31.4239 95.1648 32.1625C93.5775 32.8966 92.232 34.0773 91.2887 35.5639C90.3453 37.0506 89.8437 38.7805 89.8438 40.5476C89.8438 42.3147 90.3455 44.0446 91.2889 45.5312C92.2324 47.0178 93.5779 48.1984 95.1653 48.9324C96.7522 49.6714 98.5159 49.9316 100.245 49.6817C101.974 49.4318 103.596 48.6824 104.915 47.5233C105.133 47.3281 105.469 47.5917 105.469 47.8391V61.3157H92.1617C91.6008 61.3157 91.0453 61.4276 90.5271 61.645C90.0089 61.8624 89.538 62.181 89.1414 62.5827C88.7448 62.9844 88.4302 63.4612 88.2156 63.986C88.001 64.5109 87.8906 65.0734 87.8906 65.6414C87.8838 66.6765 88.2521 67.6782 88.9258 68.4567C89.5719 69.2221 89.9865 70.16 90.1199 71.1579C90.2532 72.1558 90.0997 73.1714 89.6778 74.0833C89.3668 74.7674 88.9146 75.3762 88.3517 75.8684C87.7888 76.3606 87.1283 76.7248 86.4145 76.9366C85.7008 77.1484 84.9506 77.2028 84.2144 77.0962C83.4782 76.9895 82.7731 76.7242 82.1467 76.3182C81.5203 75.9123 80.9871 75.375 80.583 74.7427C80.179 74.1104 79.9135 73.3977 79.8044 72.6527C79.6954 71.9077 79.7453 71.1476 79.9509 70.4238C80.1564 69.7 80.5128 69.0292 80.996 68.4567C81.6699 67.6779 82.0382 66.6758 82.0313 65.6404C82.0299 64.4938 81.5794 63.3945 80.7787 62.5837C79.9781 61.773 78.8925 61.3169 77.7602 61.3157H64.4531V47.8391C64.4532 47.7412 64.4917 47.6473 64.5601 47.5782C64.6285 47.509 64.7212 47.4702 64.8179 47.4702C64.8846 47.4663 64.9508 47.4846 65.0063 47.5223C66.3256 48.682 67.9472 49.4317 69.6766 49.6818C71.406 49.9319 73.17 49.6717 74.7571 48.9324C76.3444 48.1983 77.6898 47.0176 78.6332 45.531C79.5766 44.0444 80.0781 42.3144 80.0781 40.5473C80.078 38.7802 79.5764 37.0503 78.6329 35.5637C77.6895 34.0772 76.3439 32.8966 74.7566 32.1626C73.1697 31.4235 71.406 31.1633 69.6768 31.4132C67.9476 31.6631 66.3262 32.4125 65.0067 33.5716C64.9514 33.6101 64.8849 33.6288 64.8179 33.6247C64.7212 33.6248 64.6285 33.5859 64.5601 33.5167C64.4917 33.4476 64.4532 33.3537 64.4531 33.2558V19.7792ZM15.2602 43.5143C14.2379 43.5076 13.2486 43.8808 12.4798 44.5632C11.7237 45.2172 10.7976 45.6368 9.81229 45.7717C8.82695 45.9067 7.82408 45.7513 6.92365 45.3242C6.02279 44.903 5.2599 44.2293 4.72517 43.3828C4.19045 42.5363 3.90626 41.5525 3.90621 40.5476C3.90616 39.5428 4.19025 38.5589 4.72489 37.7124C5.25953 36.8658 6.02236 36.1921 6.92317 35.7707C7.8236 35.3436 8.82647 35.1882 9.81181 35.3232C10.7972 35.4581 11.7232 35.8777 12.4793 36.5317C13.2483 37.2141 14.2377 37.5872 15.2602 37.5806C16.3925 37.5793 17.478 37.1233 18.2787 36.3125C19.0794 35.5018 19.5299 34.4025 19.5312 33.2558V19.7792H32.8383C32.9351 19.7794 33.0278 19.8185 33.0962 19.8878C33.1646 19.9572 33.203 20.0511 33.2031 20.1491C33.2068 20.2164 33.1889 20.2832 33.1521 20.3394C32.0069 21.6753 31.2664 23.3174 31.0194 25.0687C30.7724 26.82 31.0292 28.6063 31.7592 30.2136C32.4841 31.8211 33.65 33.1837 35.118 34.1392C36.586 35.0946 38.2942 35.6026 40.0393 35.6026C41.7843 35.6026 43.4926 35.0946 44.9606 34.1392C46.4286 33.1837 47.5945 31.8211 48.3193 30.2136C49.0494 28.6061 49.3062 26.8196 49.059 25.068C48.8118 23.3165 48.071 21.6744 46.9255 20.3384C46.8892 20.282 46.8715 20.2154 46.875 20.1481C46.8751 20.0502 46.9136 19.9564 46.982 19.8872C47.0504 19.8181 47.1431 19.7792 47.2398 19.7792H60.5469V33.2558C60.5482 34.4025 60.9987 35.5018 61.7994 36.3125C62.6001 37.1233 63.6856 37.5793 64.8179 37.5806C66.7604 37.5806 67.7709 35.9788 69.5048 35.4796C70.7188 35.1557 72.0054 35.2583 73.1544 35.7707C73.9911 36.1899 74.7031 36.8265 75.2175 37.6155C75.7319 38.4044 76.0305 39.3175 76.0826 40.2614C76.1348 41.2054 75.9388 42.1464 75.5145 42.9886C75.0902 43.8307 74.4529 44.5438 73.6675 45.055C73.0007 45.4511 72.2571 45.6963 71.4879 45.7736C70.7186 45.8509 69.9419 45.7586 69.2112 45.503C68.12 45.1148 67.3835 44.1989 66.3161 43.7853C65.6697 43.5423 64.9748 43.461 64.2907 43.5485C63.6066 43.636 62.9535 43.8895 62.3869 44.2876C61.8204 44.6857 61.3572 45.2165 61.0369 45.8348C60.7165 46.4532 60.5484 47.1408 60.5469 47.8391V61.3157H47.2398C47.143 61.3155 47.0503 61.2764 46.9819 61.2071C46.9135 61.1378 46.8751 61.0438 46.875 60.9458C46.8713 60.8785 46.8892 60.8118 46.926 60.7555C48.0712 59.4196 48.8117 57.7776 49.0587 56.0262C49.3057 54.2749 49.0489 52.4886 48.3189 50.8814C47.594 49.2738 46.4281 47.9112 44.9601 46.9557C43.4921 46.0003 41.7839 45.4923 40.0388 45.4923C38.2938 45.4923 36.5855 46.0003 35.1175 46.9557C33.6495 47.9112 32.4836 49.2738 31.7588 50.8814C31.0287 52.4888 30.7719 54.2754 31.0191 56.0269C31.2663 57.7784 32.0071 59.4206 33.1526 60.7565C33.1889 60.8129 33.2066 60.8795 33.2031 60.9468C33.203 61.0447 33.1645 61.1385 33.0961 61.2077C33.0277 61.2769 32.935 61.3157 32.8383 61.3157H19.5312V47.8391C19.5299 46.6924 19.0794 45.5931 18.2787 44.7824C17.478 43.9716 16.3925 43.5156 15.2602 43.5143ZM60.5469 106.808H47.2398C46.1073 106.809 45.0217 107.265 44.221 108.076C43.4203 108.887 42.9699 109.987 42.9687 111.134C42.9619 112.169 43.3302 113.17 44.004 113.949C44.6501 114.714 45.0646 115.652 45.198 116.65C45.3313 117.648 45.1779 118.664 44.7559 119.576C44.3399 120.488 43.6745 121.261 42.8386 121.802C42.0027 122.344 41.0311 122.631 40.0388 122.631C39.0465 122.631 38.0749 122.344 37.239 121.802C36.403 121.261 35.7377 120.488 35.3217 119.576C34.8998 118.664 34.7462 117.648 34.8794 116.651C35.0126 115.653 35.4269 114.715 36.0727 113.95C36.7474 113.171 37.1163 112.169 37.1094 111.133C37.108 109.986 36.6575 108.887 35.8568 108.076C35.0562 107.265 33.9706 106.809 32.8383 106.808H19.5312V93.3314C19.5313 93.2335 19.5698 93.1396 19.6382 93.0704C19.7066 93.0013 19.7994 92.9624 19.896 92.9625C19.9627 92.9586 20.0289 92.9769 20.0844 93.0146C21.4037 94.1742 23.0253 94.924 24.7547 95.1741C26.4841 95.4242 28.2481 95.164 29.8352 94.4247C31.4225 93.6906 32.768 92.5099 33.7113 91.0233C34.6547 89.5366 35.1563 87.8067 35.1562 86.0396C35.1562 84.2725 34.6545 82.5426 33.7111 81.056C32.7676 79.5694 31.4221 78.3888 29.8347 77.6548C28.2478 76.9155 26.4841 76.6553 24.7549 76.9052C23.0256 77.1551 21.4042 77.9046 20.0848 79.0639C20.0295 79.1024 19.963 79.121 19.896 79.117C19.7994 79.117 19.7066 79.0782 19.6382 79.009C19.5698 78.9398 19.5313 78.846 19.5312 78.7481V65.2715H32.8383C33.9706 65.2703 35.0562 64.8142 35.8568 64.0035C36.6575 63.1927 37.108 62.0934 37.1094 60.9468C37.1164 59.9113 36.7478 58.9092 36.0737 58.1306C35.4276 57.3651 35.013 56.4273 34.8796 55.4294C34.7463 54.4314 34.8998 53.4158 35.3217 52.5039C35.7378 51.5916 36.4031 50.819 37.239 50.2775C38.0749 49.7359 39.0465 49.4482 40.0388 49.4482C41.0311 49.4482 42.0027 49.7359 42.8386 50.2775C43.6746 50.819 44.3399 51.5916 44.7559 52.5039C45.1779 53.4158 45.3314 54.4314 45.198 55.4294C45.0646 56.4273 44.6501 57.3651 44.004 58.1306C43.3301 58.9093 42.9618 59.9114 42.9687 60.9468C42.9701 62.0934 43.4206 63.1927 44.2212 64.0035C45.0219 64.8142 46.1075 65.2703 47.2398 65.2715H60.5469V78.748C60.5469 78.9846 60.207 79.2561 59.9937 79.0648C58.6742 77.9056 57.0526 77.1561 55.3233 76.906C53.594 76.6559 51.8301 76.9159 50.2429 77.6548C48.6556 78.3889 47.3101 79.5696 46.3668 81.0562C45.4234 82.5428 44.9218 84.2727 44.9219 86.0399C44.9219 87.807 45.4236 89.5369 46.367 91.0235C47.3105 92.51 48.656 93.6906 50.2434 94.4246C51.8304 95.1635 53.594 95.4235 55.3231 95.1736C57.0523 94.9237 58.6737 94.1745 59.9932 93.0156C60.2115 92.8198 60.5469 93.0865 60.5469 93.3314V106.808ZM118.076 90.8165C117.176 91.2439 116.173 91.3994 115.187 91.2642C114.202 91.1291 113.276 90.7091 112.52 90.0545C111.751 89.3727 110.762 88.9999 109.74 89.0066C108.608 89.0079 107.522 89.4639 106.721 90.2747C105.921 91.0854 105.47 92.1847 105.469 93.3314V106.808H92.1617C91.9254 106.808 91.6549 106.466 91.8479 106.248C92.9931 104.912 93.7336 103.27 93.9806 101.518C94.2276 99.7672 93.9708 97.9808 93.2408 96.3736C92.5159 94.7661 91.35 93.4034 89.882 92.448C88.414 91.4925 86.7058 90.9845 84.9607 90.9845C83.2157 90.9845 81.5074 91.4925 80.0394 92.448C78.5714 93.4034 77.4055 94.7661 76.6807 96.3736C75.9507 97.981 75.6938 99.7674 75.941 101.519C76.1881 103.27 76.9287 104.912 78.0741 106.248C78.2667 106.469 77.9985 106.808 77.7602 106.808H64.4531V93.3314C64.4517 92.1847 64.0013 91.0854 63.2006 90.2747C62.3999 89.4639 61.3144 89.0079 60.1821 89.0066C59.1598 88.9999 58.1705 89.373 57.4016 90.0555C56.6455 90.7093 55.7194 91.1287 54.7341 91.2637C53.7488 91.3986 52.746 91.2434 51.8455 90.8165C50.9447 90.3952 50.1818 89.7215 49.6471 88.8751C49.1123 88.0286 48.8282 87.0448 48.8281 86.0399C48.8281 85.035 49.1121 84.0512 49.6468 83.2046C50.1814 82.3581 50.9442 81.6843 51.8451 81.263C52.7454 80.8354 53.7484 80.6797 54.7338 80.8147C55.7192 80.9497 56.6454 81.3696 57.4012 82.024C58.1702 82.7063 59.1596 83.0795 60.1821 83.0728C61.3144 83.0716 62.3999 82.6156 63.2006 81.8048C64.0013 80.9941 64.4517 79.8948 64.4531 78.7481V65.2715H77.7602C77.9994 65.2715 78.2671 65.6097 78.0735 65.8317C76.9316 67.1684 76.1931 68.8094 75.9459 70.5591C75.6987 72.3088 75.9531 74.0936 76.679 75.701C77.4048 77.3084 78.5715 78.6707 80.0401 79.6258C81.5087 80.5809 83.2174 81.0885 84.9628 81.0882C86.7081 81.0879 88.4166 80.5797 89.8849 79.6241C91.3532 78.6685 92.5194 77.3058 93.2447 75.6981C93.97 74.0904 94.2239 72.3055 93.9761 70.5559C93.7283 68.8063 92.9892 67.1657 91.8469 65.8293C91.6546 65.6096 91.9189 65.2715 92.1617 65.2715H105.469V78.7481C105.47 79.8948 105.921 80.9941 106.721 81.8048C107.522 82.6156 108.608 83.0716 109.74 83.0728C110.762 83.0796 111.751 82.7064 112.52 82.024C113.276 81.3697 114.202 80.9499 115.188 80.815C116.173 80.68 117.176 80.8355 118.077 81.263C118.978 81.6843 119.74 82.3581 120.275 83.2046C120.81 84.0512 121.094 85.035 121.094 86.0399C121.094 87.0448 120.81 88.0286 120.275 88.8751C119.74 89.7215 118.977 90.3952 118.076 90.8165Z" fill="#414535"/>
</svg>
